<svg width="50" height="61" viewBox="0 0 50 61" fill="none" xmlns="http://www.w3.org/2000/svg">
<path fill-rule="evenodd" clip-rule="evenodd" d="M33.6766 0.387695C43.4391 0.387695 49.0399 5.22005 49.0399 13.6385V55.4748C49.0399 57.2304 48.1362 58.8105 46.6166 59.6941C45.1027 60.5805 43.278 60.5978 41.7468 59.7344L24.5933 50.0438L7.28141 59.7545C6.5331 60.1747 5.71284 60.3877 4.8897 60.3877C4.04066 60.3877 3.19161 60.1603 2.42028 59.7056C0.903513 58.822 -0.000213623 57.2419 -0.000213623 55.4891V13.1118C-0.000213623 5.02433 5.60347 0.387695 15.3747 0.387695H33.6766ZM33.6766 4.70486H15.3747C8.03835 4.70486 4.31695 7.53117 4.31695 13.1118V55.4891C4.31695 55.7597 4.47237 55.9065 4.60189 55.9813C4.7314 56.0619 4.93575 56.1195 5.17175 55.9871L23.5399 45.6834C24.1961 45.3179 24.9991 45.315 25.6582 45.6863L43.868 55.9727C44.1069 56.1108 44.3112 56.0475 44.4407 55.9698C44.5702 55.8921 44.7228 55.7453 44.7228 55.4748L44.7217 13.3105C44.6999 10.8334 44.2207 4.70486 33.6766 4.70486ZM34.9395 19.7531C36.131 19.7531 37.0981 20.7201 37.0981 21.9117C37.0981 23.1032 36.131 24.0702 34.9395 24.0702H13.8775C12.6859 24.0702 11.7189 23.1032 11.7189 21.9117C11.7189 20.7201 12.6859 19.7531 13.8775 19.7531H34.9395Z" fill="white"/>
</svg>
