<svg width="75" height="75" viewBox="0 0 75 75" fill="none" xmlns="http://www.w3.org/2000/svg">
<path d="M19 18H57V58H19V18Z" fill="white"/>
<path d="M37.3333 2L38.3218 2.01358C57.3694 2.53764 72.6667 18.1599 72.6667 37.3333C72.6667 56.802 56.8373 72.6667 37.3333 72.6667C17.8647 72.6667 2 56.802 2 37.3333C2 17.8293 17.8647 2 37.3333 2ZM44.3293 23.2C43.2693 22.14 41.6087 22.14 40.584 23.2L28.2527 35.4607C27.758 35.9553 27.4753 36.6267 27.4753 37.3333C27.4753 38.04 27.758 38.7113 28.2527 39.206L40.584 51.4667C41.0787 51.9967 41.75 52.244 42.4213 52.244C43.128 52.244 43.7993 51.9967 44.3293 51.4667C45.354 50.4067 45.354 48.746 44.294 47.7213L33.8707 37.3333L44.294 26.9453C45.354 25.9207 45.354 24.2247 44.3293 23.2Z" fill="#110F2D"/>
<path d="M37.3429 1.30007V1.3H37.3333C17.4785 1.3 1.3 17.4423 1.3 37.3333C1.3 57.1886 17.4781 73.3667 37.3333 73.3667C57.2244 73.3667 73.3667 57.1881 73.3667 37.3333C73.3667 17.7797 57.7665 1.8483 38.3411 1.31385V1.31378L38.3315 1.31365L37.3429 1.30007ZM41.0775 23.6964L41.0776 23.6965L41.0873 23.6865C41.8322 22.9159 43.043 22.9036 43.8344 23.695C44.5842 24.4449 44.5843 25.6911 43.8075 26.442L43.8074 26.442L43.7999 26.4495L33.3765 36.8375L32.879 37.3333L33.3765 37.8291L43.7999 48.2171L43.7998 48.2172L43.8075 48.2246C44.5783 48.9697 44.5916 50.1837 43.8302 50.9758C43.4424 51.3615 42.9554 51.544 42.4213 51.544C41.9209 51.544 41.443 51.3611 41.0957 50.989L41.0868 50.9795L41.0775 50.9703L28.7476 38.711C28.7474 38.7108 28.7472 38.7106 28.7469 38.7103C28.3825 38.3455 28.1753 37.8519 28.1753 37.3333C28.1753 36.8148 28.3825 36.3212 28.7469 35.9563C28.7472 35.9561 28.7474 35.9559 28.7476 35.9556L41.0775 23.6964Z" stroke="white" stroke-opacity="0.24" stroke-width="1.4"/>
</svg>
