<svg width="75" height="75" viewBox="0 0 75 75" fill="none" xmlns="http://www.w3.org/2000/svg">
<path d="M55.6667 18H17.6667V58H55.6667V18Z" fill="white"/>
<path d="M37.3334 2L36.3449 2.01358C17.2974 2.53764 2.00008 18.1599 2.00008 37.3333C2.00008 56.802 17.8294 72.6667 37.3334 72.6667C56.8021 72.6667 72.6667 56.802 72.6667 37.3333C72.6667 17.8293 56.8021 2 37.3334 2ZM30.3374 23.2C31.3974 22.14 33.0581 22.14 34.0827 23.2L46.4141 35.4607C46.9087 35.9553 47.1914 36.6267 47.1914 37.3333C47.1914 38.04 46.9087 38.7113 46.4141 39.206L34.0827 51.4667C33.5881 51.9967 32.9167 52.244 32.2454 52.244C31.5387 52.244 30.8674 51.9967 30.3374 51.4667C29.3128 50.4067 29.3127 48.746 30.3727 47.7213L40.7961 37.3333L30.3727 26.9453C29.3127 25.9207 29.3128 24.2247 30.3374 23.2Z" fill="#110F2D"/>
<path d="M37.3238 1.30007V1.3H37.3334C57.1882 1.3 73.3667 17.4423 73.3667 37.3333C73.3667 57.1886 57.1887 73.3667 37.3334 73.3667C17.4424 73.3667 1.30009 57.1881 1.30009 37.3333C1.30009 17.7797 16.9002 1.8483 36.3257 1.31385V1.31378L36.3353 1.31365L37.3238 1.30007ZM33.5892 23.6964L33.5891 23.6965L33.5795 23.6865C32.8345 22.9159 31.6238 22.9036 30.8324 23.695C30.0825 24.4449 30.0825 25.6911 30.8593 26.442L30.8593 26.442L30.8669 26.4495L41.2902 36.8375L41.7877 37.3333L41.2902 37.8291L30.8669 48.2171L30.8669 48.2172L30.8593 48.2246C30.0885 48.9697 30.0752 50.1837 30.8365 50.9758C31.2244 51.3615 31.7113 51.544 32.2454 51.544C32.7458 51.544 33.2237 51.3611 33.571 50.989L33.5799 50.9795L33.5892 50.9703L45.9191 38.711C45.9193 38.7108 45.9196 38.7106 45.9198 38.7103C46.2843 38.3455 46.4914 37.8519 46.4914 37.3333C46.4914 36.8148 46.2843 36.3212 45.9198 35.9563C45.9196 35.9561 45.9193 35.9559 45.9191 35.9556L33.5892 23.6964Z" stroke="white" stroke-opacity="0.24" stroke-width="1.4"/>
</svg>
